<svg xmlns="http://www.w3.org/2000/svg" viewBox="0 0 1140 400"><style>text{font-family:Times New Roman,serif;font-size:12px;fill:#222}.small{font-size:10px}.title{font-size:14px;font-weight:600}</style><text class="title" x="198.0" y="20" text-anchor="middle">LoCoMo (n=314 per point)</text><line x1="52" y1="255.0" x2="344" y2="255.0" stroke="#ddd"/><text class="small" x="45" y="259.0" text-anchor="end">70</text><line x1="52" y1="202.5" x2="344" y2="202.5" stroke="#ddd"/><text class="small" x="45" y="206.5" text-anchor="end">76</text><line x1="52" y1="150.0" x2="344" y2="150.0" stroke="#ddd"/><text class="small" x="45" y="154.0" text-anchor="end">82</text><line x1="52" y1="97.5" x2="344" y2="97.5" stroke="#ddd"/><text class="small" x="45" y="101.5" text-anchor="end">89</text><line x1="52" y1="45.0" x2="344" y2="45.0" stroke="#ddd"/><text class="small" x="45" y="49.0" text-anchor="end">95</text><line x1="65.5" y1="45" x2="65.5" y2="255" stroke="#eee"/><text class="small" x="65.5" y="271" text-anchor="middle">4</text><line x1="107.4" y1="45" x2="107.4" y2="255" stroke="#eee"/><text class="small" x="107.4" y="271" text-anchor="middle">8</text><line x1="149.3" y1="45" x2="149.3" y2="255" stroke="#eee"/><text class="small" x="149.3" y="271" text-anchor="middle">16</text><line x1="191.3" y1="45" x2="191.3" y2="255" stroke="#eee"/><text class="small" x="191.3" y="271" text-anchor="middle">32</text><line x1="233.2" y1="45" x2="233.2" y2="255" stroke="#eee"/><text class="small" x="233.2" y="271" text-anchor="middle">64</text><line x1="275.1" y1="45" x2="275.1" y2="255" stroke="#eee"/><text class="small" x="275.1" y="271" text-anchor="middle">128</text><line x1="317.0" y1="45" x2="317.0" y2="255" stroke="#eee"/><text class="small" x="317.0" y="271" text-anchor="middle">256</text><line x1="52" y1="255" x2="344" y2="255" stroke="#333"/><line x1="52" y1="45" x2="52" y2="255" stroke="#333"/><text class="small" transform="translate(15,150.0) rotate(-90)" text-anchor="middle">Judge accuracy (%)</text><line x1="62.2" y1="255" x2="62.2" y2="274" stroke="#999" stroke-width=".7"/><text class="small" x="62.2" y="287" text-anchor="middle">W4</text><text class="small" x="62.2" y="298" text-anchor="middle">3.8</text><line x1="100.5" y1="255" x2="100.5" y2="298" stroke="#999" stroke-width=".7"/><text class="small" x="100.5" y="311" text-anchor="middle">W8</text><text class="small" x="100.5" y="322" text-anchor="middle">7.1</text><line x1="134.1" y1="255" x2="134.1" y2="274" stroke="#999" stroke-width=".7"/><text class="small" x="134.1" y="287" text-anchor="middle">W16</text><text class="small" x="134.1" y="298" text-anchor="middle">12.4</text><line x1="166.3" y1="255" x2="166.3" y2="298" stroke="#999" stroke-width=".7"/><text class="small" x="166.3" y="311" text-anchor="middle">W32</text><text class="small" x="166.3" y="322" text-anchor="middle">21.2</text><line x1="214.2" y1="255" x2="214.2" y2="274" stroke="#999" stroke-width=".7"/><text class="small" x="214.2" y="287" text-anchor="middle">S2</text><text class="small" x="214.2" y="298" text-anchor="middle">46.8</text><line x1="254.1" y1="255" x2="254.1" y2="298" stroke="#999" stroke-width=".7"/><text class="small" x="254.1" y="311" text-anchor="middle">S4</text><text class="small" x="254.1" y="322" text-anchor="middle">90.4</text><line x1="292.1" y1="255" x2="292.1" y2="274" stroke="#999" stroke-width=".7"/><text class="small" x="292.1" y="287" text-anchor="middle">S8</text><text class="small" x="292.1" y="298" text-anchor="middle">169.5</text><line x1="334.0" y1="255" x2="334.0" y2="298" stroke="#999" stroke-width=".7"/><text class="small" x="334.0" y="311" text-anchor="middle">S16</text><text class="small" x="334.0" y="322" text-anchor="middle">339.0</text><polyline points="62.2,83.3 100.5,69.9 134.1,88.6 166.3,94.0" fill="none" stroke="#0072B2" stroke-width="2.1"/><polyline points="214.2,104.7 254.1,107.3 292.1,102.0 334.0,209.0" fill="none" stroke="#0072B2" stroke-width="2.1"/><line x1="166.3" y1="94.0" x2="214.2" y2="104.7" stroke="#0072B2" stroke-width="1.5"/><circle cx="62.2" cy="83.3" r="3.7" fill="white" stroke="#0072B2" stroke-width="2"/><circle cx="100.5" cy="69.9" r="3.7" fill="white" stroke="#0072B2" stroke-width="2"/><circle cx="134.1" cy="88.6" r="3.7" fill="white" stroke="#0072B2" stroke-width="2"/><circle cx="166.3" cy="94.0" r="3.7" fill="white" stroke="#0072B2" stroke-width="2"/><path d="M214.2,100.7 L218.2,104.7 L214.2,108.7 L210.2,104.7 Z" fill="white" stroke="#0072B2" stroke-width="2"/><path d="M254.1,103.3 L258.1,107.3 L254.1,111.3 L250.1,107.3 Z" fill="white" stroke="#0072B2" stroke-width="2"/><path d="M292.1,98.0 L296.1,102.0 L292.1,106.0 L288.1,102.0 Z" fill="white" stroke="#0072B2" stroke-width="2"/><path d="M334.0,205.0 L338.0,209.0 L334.0,213.0 L330.0,209.0 Z" fill="white" stroke="#0072B2" stroke-width="2"/><polyline points="62.2,94.0 100.5,99.3 134.1,85.9 166.3,88.6" fill="none" stroke="#D55E00" stroke-width="2.1"/><polyline points="214.2,72.6 254.1,96.6 292.1,91.3 334.0,85.9" fill="none" stroke="#D55E00" stroke-width="2.1"/><line x1="166.3" y1="88.6" x2="214.2" y2="72.6" stroke="#D55E00" stroke-width="1.5"/><circle cx="62.2" cy="94.0" r="3.7" fill="white" stroke="#D55E00" stroke-width="2"/><circle cx="100.5" cy="99.3" r="3.7" fill="white" stroke="#D55E00" stroke-width="2"/><circle cx="134.1" cy="85.9" r="3.7" fill="white" stroke="#D55E00" stroke-width="2"/><circle cx="166.3" cy="88.6" r="3.7" fill="white" stroke="#D55E00" stroke-width="2"/><path d="M214.2,68.6 L218.2,72.6 L214.2,76.6 L210.2,72.6 Z" fill="white" stroke="#D55E00" stroke-width="2"/><path d="M254.1,92.6 L258.1,96.6 L254.1,100.6 L250.1,96.6 Z" fill="white" stroke="#D55E00" stroke-width="2"/><path d="M292.1,87.3 L296.1,91.3 L292.1,95.3 L288.1,91.3 Z" fill="white" stroke="#D55E00" stroke-width="2"/><path d="M334.0,81.9 L338.0,85.9 L334.0,89.9 L330.0,85.9 Z" fill="white" stroke="#D55E00" stroke-width="2"/><polyline points="62.2,61.9 100.5,72.6 134.1,85.9 166.3,77.9" fill="none" stroke="#009E73" stroke-width="2.1"/><polyline points="214.2,91.3 254.1,91.3 292.1,94.0 334.0,102.0" fill="none" stroke="#009E73" stroke-width="2.1"/><line x1="166.3" y1="77.9" x2="214.2" y2="91.3" stroke="#009E73" stroke-width="1.5"/><circle cx="62.2" cy="61.9" r="3.7" fill="white" stroke="#009E73" stroke-width="2"/><circle cx="100.5" cy="72.6" r="3.7" fill="white" stroke="#009E73" stroke-width="2"/><circle cx="134.1" cy="85.9" r="3.7" fill="white" stroke="#009E73" stroke-width="2"/><circle cx="166.3" cy="77.9" r="3.7" fill="white" stroke="#009E73" stroke-width="2"/><path d="M214.2,87.3 L218.2,91.3 L214.2,95.3 L210.2,91.3 Z" fill="white" stroke="#009E73" stroke-width="2"/><path d="M254.1,87.3 L258.1,91.3 L254.1,95.3 L250.1,91.3 Z" fill="white" stroke="#009E73" stroke-width="2"/><path d="M292.1,90.0 L296.1,94.0 L292.1,98.0 L288.1,94.0 Z" fill="white" stroke="#009E73" stroke-width="2"/><path d="M334.0,98.0 L338.0,102.0 L334.0,106.0 L330.0,102.0 Z" fill="white" stroke="#009E73" stroke-width="2"/><text class="small" x="198.0" y="331" text-anchor="middle">Actual source messages per writer call (log₂ scale)</text><text class="title" x="573.0" y="20" text-anchor="middle">LongMemEval-S (n=2 per point)</text><line x1="427" y1="255.0" x2="719" y2="255.0" stroke="#ddd"/><text class="small" x="420" y="259.0" text-anchor="end">0</text><line x1="427" y1="202.5" x2="719" y2="202.5" stroke="#ddd"/><text class="small" x="420" y="206.5" text-anchor="end">25</text><line x1="427" y1="150.0" x2="719" y2="150.0" stroke="#ddd"/><text class="small" x="420" y="154.0" text-anchor="end">50</text><line x1="427" y1="97.5" x2="719" y2="97.5" stroke="#ddd"/><text class="small" x="420" y="101.5" text-anchor="end">75</text><line x1="427" y1="45.0" x2="719" y2="45.0" stroke="#ddd"/><text class="small" x="420" y="49.0" text-anchor="end">100</text><line x1="440.5" y1="45" x2="440.5" y2="255" stroke="#eee"/><text class="small" x="440.5" y="271" text-anchor="middle">4</text><line x1="482.4" y1="45" x2="482.4" y2="255" stroke="#eee"/><text class="small" x="482.4" y="271" text-anchor="middle">8</text><line x1="524.3" y1="45" x2="524.3" y2="255" stroke="#eee"/><text class="small" x="524.3" y="271" text-anchor="middle">16</text><line x1="566.3" y1="45" x2="566.3" y2="255" stroke="#eee"/><text class="small" x="566.3" y="271" text-anchor="middle">32</text><line x1="608.2" y1="45" x2="608.2" y2="255" stroke="#eee"/><text class="small" x="608.2" y="271" text-anchor="middle">64</text><line x1="650.1" y1="45" x2="650.1" y2="255" stroke="#eee"/><text class="small" x="650.1" y="271" text-anchor="middle">128</text><line x1="692.0" y1="45" x2="692.0" y2="255" stroke="#eee"/><text class="small" x="692.0" y="271" text-anchor="middle">256</text><line x1="427" y1="255" x2="719" y2="255" stroke="#333"/><line x1="427" y1="45" x2="427" y2="255" stroke="#333"/><text class="small" transform="translate(390,150.0) rotate(-90)" text-anchor="middle">Correctness (%)</text><line x1="437.5" y1="255" x2="437.5" y2="274" stroke="#999" stroke-width=".7"/><text class="small" x="437.5" y="287" text-anchor="middle">W4</text><text class="small" x="437.5" y="298" text-anchor="middle">3.8</text><line x1="466.1" y1="255" x2="466.1" y2="298" stroke="#999" stroke-width=".7"/><text class="small" x="466.1" y="311" text-anchor="middle">W8</text><text class="small" x="466.1" y="322" text-anchor="middle">6.1</text><line x1="499.2" y1="255" x2="499.2" y2="274" stroke="#999" stroke-width=".7"/><text class="small" x="499.2" y="287" text-anchor="middle">W16</text><text class="small" x="499.2" y="298" text-anchor="middle">10.6</text><line x1="504.1" y1="255" x2="504.1" y2="298" stroke="#999" stroke-width=".7"/><text class="small" x="504.1" y="311" text-anchor="middle">W32</text><text class="small" x="504.1" y="322" text-anchor="middle">11.5</text><line x1="549.3" y1="255" x2="549.3" y2="274" stroke="#999" stroke-width=".7"/><text class="small" x="549.3" y="287" text-anchor="middle">S2</text><text class="small" x="549.3" y="298" text-anchor="middle">24.2</text><line x1="589.9" y1="255" x2="589.9" y2="298" stroke="#999" stroke-width=".7"/><text class="small" x="589.9" y="311" text-anchor="middle">S4</text><text class="small" x="589.9" y="322" text-anchor="middle">47.3</text><line x1="629.2" y1="255" x2="629.2" y2="274" stroke="#999" stroke-width=".7"/><text class="small" x="629.2" y="287" text-anchor="middle">S8</text><text class="small" x="629.2" y="298" text-anchor="middle">90.7</text><line x1="671.2" y1="255" x2="671.2" y2="298" stroke="#999" stroke-width=".7"/><text class="small" x="671.2" y="311" text-anchor="middle">S16</text><text class="small" x="671.2" y="322" text-anchor="middle">181.3</text><polyline points="437.5,45.0 466.1,45.0 499.2,45.0 504.1,45.0" fill="none" stroke="#0072B2" stroke-width="2.1"/><polyline points="549.3,150.0 589.9,45.0 629.2,45.0 671.2,150.0" fill="none" stroke="#0072B2" stroke-width="2.1"/><line x1="504.1" y1="45.0" x2="549.3" y2="150.0" stroke="#0072B2" stroke-width="1.5"/><circle cx="437.5" cy="45.0" r="3.7" fill="white" stroke="#0072B2" stroke-width="2"/><circle cx="466.1" cy="45.0" r="3.7" fill="white" stroke="#0072B2" stroke-width="2"/><circle cx="499.2" cy="45.0" r="3.7" fill="white" stroke="#0072B2" stroke-width="2"/><circle cx="504.1" cy="45.0" r="3.7" fill="white" stroke="#0072B2" stroke-width="2"/><path d="M549.3,146.0 L553.3,150.0 L549.3,154.0 L545.3,150.0 Z" fill="white" stroke="#0072B2" stroke-width="2"/><path d="M589.9,41.0 L593.9,45.0 L589.9,49.0 L585.9,45.0 Z" fill="white" stroke="#0072B2" stroke-width="2"/><path d="M629.2,41.0 L633.2,45.0 L629.2,49.0 L625.2,45.0 Z" fill="white" stroke="#0072B2" stroke-width="2"/><path d="M671.2,146.0 L675.2,150.0 L671.2,154.0 L667.2,150.0 Z" fill="white" stroke="#0072B2" stroke-width="2"/><polyline points="437.5,45.0 466.1,45.0 499.2,45.0 504.1,45.0" fill="none" stroke="#D55E00" stroke-width="2.1"/><polyline points="549.3,45.0 589.9,45.0 629.2,45.0 671.2,45.0" fill="none" stroke="#D55E00" stroke-width="2.1"/><line x1="504.1" y1="45.0" x2="549.3" y2="45.0" stroke="#D55E00" stroke-width="1.5"/><circle cx="437.5" cy="45.0" r="3.7" fill="white" stroke="#D55E00" stroke-width="2"/><circle cx="466.1" cy="45.0" r="3.7" fill="white" stroke="#D55E00" stroke-width="2"/><circle cx="499.2" cy="45.0" r="3.7" fill="white" stroke="#D55E00" stroke-width="2"/><circle cx="504.1" cy="45.0" r="3.7" fill="white" stroke="#D55E00" stroke-width="2"/><path d="M549.3,41.0 L553.3,45.0 L549.3,49.0 L545.3,45.0 Z" fill="white" stroke="#D55E00" stroke-width="2"/><path d="M589.9,41.0 L593.9,45.0 L589.9,49.0 L585.9,45.0 Z" fill="white" stroke="#D55E00" stroke-width="2"/><path d="M629.2,41.0 L633.2,45.0 L629.2,49.0 L625.2,45.0 Z" fill="white" stroke="#D55E00" stroke-width="2"/><path d="M671.2,41.0 L675.2,45.0 L671.2,49.0 L667.2,45.0 Z" fill="white" stroke="#D55E00" stroke-width="2"/><polyline points="437.5,45.0 466.1,45.0 499.2,45.0 504.1,45.0" fill="none" stroke="#009E73" stroke-width="2.1"/><polyline points="549.3,45.0 589.9,45.0 629.2,45.0 671.2,45.0" fill="none" stroke="#009E73" stroke-width="2.1"/><line x1="504.1" y1="45.0" x2="549.3" y2="45.0" stroke="#009E73" stroke-width="1.5"/><circle cx="437.5" cy="45.0" r="3.7" fill="white" stroke="#009E73" stroke-width="2"/><circle cx="466.1" cy="45.0" r="3.7" fill="white" stroke="#009E73" stroke-width="2"/><circle cx="499.2" cy="45.0" r="3.7" fill="white" stroke="#009E73" stroke-width="2"/><circle cx="504.1" cy="45.0" r="3.7" fill="white" stroke="#009E73" stroke-width="2"/><path d="M549.3,41.0 L553.3,45.0 L549.3,49.0 L545.3,45.0 Z" fill="white" stroke="#009E73" stroke-width="2"/><path d="M589.9,41.0 L593.9,45.0 L589.9,49.0 L585.9,45.0 Z" fill="white" stroke="#009E73" stroke-width="2"/><path d="M629.2,41.0 L633.2,45.0 L629.2,49.0 L625.2,45.0 Z" fill="white" stroke="#009E73" stroke-width="2"/><path d="M671.2,41.0 L675.2,45.0 L671.2,49.0 L667.2,45.0 Z" fill="white" stroke="#009E73" stroke-width="2"/><text class="small" x="573.0" y="331" text-anchor="middle">Actual source messages per writer call (log₂ scale)</text><text class="title" x="948.0" y="20" text-anchor="middle">BEAM screening (n=40 per point)</text><line x1="802" y1="255.0" x2="1094" y2="255.0" stroke="#ddd"/><text class="small" x="795" y="259.0" text-anchor="end">45</text><line x1="802" y1="202.5" x2="1094" y2="202.5" stroke="#ddd"/><text class="small" x="795" y="206.5" text-anchor="end">51</text><line x1="802" y1="150.0" x2="1094" y2="150.0" stroke="#ddd"/><text class="small" x="795" y="154.0" text-anchor="end">58</text><line x1="802" y1="97.5" x2="1094" y2="97.5" stroke="#ddd"/><text class="small" x="795" y="101.5" text-anchor="end">64</text><line x1="802" y1="45.0" x2="1094" y2="45.0" stroke="#ddd"/><text class="small" x="795" y="49.0" text-anchor="end">70</text><line x1="815.5" y1="45" x2="815.5" y2="255" stroke="#eee"/><text class="small" x="815.5" y="271" text-anchor="middle">4</text><line x1="857.4" y1="45" x2="857.4" y2="255" stroke="#eee"/><text class="small" x="857.4" y="271" text-anchor="middle">8</text><line x1="899.3" y1="45" x2="899.3" y2="255" stroke="#eee"/><text class="small" x="899.3" y="271" text-anchor="middle">16</text><line x1="941.3" y1="45" x2="941.3" y2="255" stroke="#eee"/><text class="small" x="941.3" y="271" text-anchor="middle">32</text><line x1="983.2" y1="45" x2="983.2" y2="255" stroke="#eee"/><text class="small" x="983.2" y="271" text-anchor="middle">64</text><line x1="1025.1" y1="45" x2="1025.1" y2="255" stroke="#eee"/><text class="small" x="1025.1" y="271" text-anchor="middle">128</text><line x1="1067.0" y1="45" x2="1067.0" y2="255" stroke="#eee"/><text class="small" x="1067.0" y="271" text-anchor="middle">256</text><line x1="802" y1="255" x2="1094" y2="255" stroke="#333"/><line x1="802" y1="45" x2="802" y2="255" stroke="#333"/><text class="small" transform="translate(765,150.0) rotate(-90)" text-anchor="middle">Rubric mean (%)</text><line x1="814.9" y1="255" x2="814.9" y2="274" stroke="#999" stroke-width=".7"/><text class="small" x="814.9" y="287" text-anchor="middle">W4</text><text class="small" x="814.9" y="298" text-anchor="middle">4.0</text><line x1="855.6" y1="255" x2="855.6" y2="298" stroke="#999" stroke-width=".7"/><text class="small" x="855.6" y="311" text-anchor="middle">W8</text><text class="small" x="855.6" y="322" text-anchor="middle">7.8</text><line x1="892.8" y1="255" x2="892.8" y2="274" stroke="#999" stroke-width=".7"/><text class="small" x="892.8" y="287" text-anchor="middle">W16</text><text class="small" x="892.8" y="298" text-anchor="middle">14.4</text><line x1="928.4" y1="255" x2="928.4" y2="298" stroke="#999" stroke-width=".7"/><text class="small" x="928.4" y="311" text-anchor="middle">W32</text><text class="small" x="928.4" y="322" text-anchor="middle">25.9</text><line x1="983.8" y1="255" x2="983.8" y2="274" stroke="#999" stroke-width=".7"/><text class="small" x="983.8" y="287" text-anchor="middle">S1</text><text class="small" x="983.8" y="298" text-anchor="middle">64.7</text><line x1="1008.3" y1="255" x2="1008.3" y2="298" stroke="#999" stroke-width=".7"/><text class="small" x="1008.3" y="311" text-anchor="middle">S2</text><text class="small" x="1008.3" y="322" text-anchor="middle">97.0</text><polyline points="814.9,193.9 855.6,179.9 892.8,244.5 928.4,152.1" fill="none" stroke="#0072B2" stroke-width="2.1"/><polyline points="983.8,170.3 1008.3,175.9" fill="none" stroke="#0072B2" stroke-width="2.1"/><line x1="928.4" y1="152.1" x2="983.8" y2="170.3" stroke="#0072B2" stroke-width="1.5"/><circle cx="814.9" cy="193.9" r="3.7" fill="white" stroke="#0072B2" stroke-width="2"/><circle cx="855.6" cy="179.9" r="3.7" fill="white" stroke="#0072B2" stroke-width="2"/><circle cx="892.8" cy="244.5" r="3.7" fill="white" stroke="#0072B2" stroke-width="2"/><circle cx="928.4" cy="152.1" r="3.7" fill="white" stroke="#0072B2" stroke-width="2"/><path d="M983.8,166.3 L987.8,170.3 L983.8,174.3 L979.8,170.3 Z" fill="white" stroke="#0072B2" stroke-width="2"/><path d="M1008.3,171.9 L1012.3,175.9 L1008.3,179.9 L1004.3,175.9 Z" fill="white" stroke="#0072B2" stroke-width="2"/><polyline points="814.9,172.1 855.6,159.1 892.8,158.2 928.4,164.5" fill="none" stroke="#D55E00" stroke-width="2.1"/><polyline points="983.8,108.3 1008.3,196.2" fill="none" stroke="#D55E00" stroke-width="2.1"/><line x1="928.4" y1="164.5" x2="983.8" y2="108.3" stroke="#D55E00" stroke-width="1.5"/><circle cx="814.9" cy="172.1" r="3.7" fill="white" stroke="#D55E00" stroke-width="2"/><circle cx="855.6" cy="159.1" r="3.7" fill="white" stroke="#D55E00" stroke-width="2"/><circle cx="892.8" cy="158.2" r="3.7" fill="white" stroke="#D55E00" stroke-width="2"/><circle cx="928.4" cy="164.5" r="3.7" fill="white" stroke="#D55E00" stroke-width="2"/><path d="M983.8,104.3 L987.8,108.3 L983.8,112.3 L979.8,108.3 Z" fill="white" stroke="#D55E00" stroke-width="2"/><path d="M1008.3,192.2 L1012.3,196.2 L1008.3,200.2 L1004.3,196.2 Z" fill="white" stroke="#D55E00" stroke-width="2"/><polyline points="814.9,201.1 855.6,129.3 892.8,126.4 928.4,166.6" fill="none" stroke="#009E73" stroke-width="2.1"/><polyline points="983.8,173.8 1008.3,150.3" fill="none" stroke="#009E73" stroke-width="2.1"/><line x1="928.4" y1="166.6" x2="983.8" y2="173.8" stroke="#009E73" stroke-width="1.5"/><circle cx="814.9" cy="201.1" r="3.7" fill="white" stroke="#009E73" stroke-width="2"/><circle cx="855.6" cy="129.3" r="3.7" fill="white" stroke="#009E73" stroke-width="2"/><circle cx="892.8" cy="126.4" r="3.7" fill="white" stroke="#009E73" stroke-width="2"/><circle cx="928.4" cy="166.6" r="3.7" fill="white" stroke="#009E73" stroke-width="2"/><path d="M983.8,169.8 L987.8,173.8 L983.8,177.8 L979.8,173.8 Z" fill="white" stroke="#009E73" stroke-width="2"/><path d="M1008.3,146.3 L1012.3,150.3 L1008.3,154.3 L1004.3,150.3 Z" fill="white" stroke="#009E73" stroke-width="2"/><text class="small" x="948.0" y="331" text-anchor="middle">Actual source messages per writer call (log₂ scale)</text><line x1="330" y1="382" x2="350" y2="382" stroke="#0072B2" stroke-width="2.1"/><text class="small" x="356" y="386">Luna</text><line x1="422" y1="382" x2="442" y2="382" stroke="#D55E00" stroke-width="2.1"/><text class="small" x="448" y="386">Terra</text><line x1="514" y1="382" x2="534" y2="382" stroke="#009E73" stroke-width="2.1"/><text class="small" x="540" y="386">Sol</text><circle cx="650" cy="382" r="3.7" fill="white" stroke="#444" stroke-width="1.7"/><text class="small" x="660" y="386">Writer window</text><path d="M755.0,378.0 L759.0,382.0 L755.0,386.0 L751.0,382.0 Z" fill="white" stroke="#444" stroke-width="2"/><text class="small" x="765" y="386">Session group</text></svg>